<?xml version="1.0" standalone="no"?>
<!DOCTYPE svg PUBLIC "-//W3C//DTD SVG 20010904//EN"
 "http://www.w3.org/TR/2001/REC-SVG-20010904/DTD/svg10.dtd">
<svg version="1.0" xmlns="http://www.w3.org/2000/svg"
 width="471.000000pt" height="471.000000pt" viewBox="0 0 471.000000 471.000000"
 preserveAspectRatio="xMidYMid meet">

<g transform="translate(0.000000,471.000000) scale(0.100000,-0.100000)"
fill="#000000" stroke="none">
<path d="M0 2355 l0 -2355 2355 0 2355 0 0 1255 c0 969 -3 1255 -12 1255 -9 0
-9 3 0 12 28 28 -3 73 -33 48 -14 -12 -14 -27 0 -50 8 -13 7 -13 -8 -1 -9 7
-17 20 -17 28 0 23 29 46 50 40 20 -5 20 6 20 1059 l0 1064 -2355 0 -2355 0 0
-2355z m2356 2030 c16 3 22 2 14 -2 -8 -3 -24 -16 -35 -28 -32 -34 -125 -110
-345 -281 -293 -228 -374 -286 -378 -269 -2 8 6 28 17 44 12 16 21 32 21 37 0
9 59 81 107 129 21 21 83 74 138 118 143 114 133 102 104 133 l-24 26 51 -7
c46 -6 57 -3 124 32 40 21 79 48 88 61 14 21 40 33 27 12 -3 -5 0 -10 8 -10 8
0 18 8 22 18 6 16 7 16 20 -1 9 -13 21 -16 41 -12z m149 15 c3 -5 17 -10 30
-10 13 0 27 -5 30 -10 4 -6 24 -19 46 -30 21 -11 39 -27 39 -34 0 -19 66 -57
85 -50 10 4 15 0 15 -13 0 -25 80 -83 114 -83 19 0 29 -7 35 -24 10 -24 29
-36 61 -36 17 0 35 -25 32 -43 -1 -4 9 -5 22 -1 20 5 25 2 28 -18 2 -12 10
-23 18 -24 34 -2 37 -5 38 -35 1 -30 7 -43 20 -45 10 -1 45 -14 62 -23 16 -9
20 -52 6 -62 -4 -4 -3 -16 3 -28 9 -16 9 -21 -1 -22 -7 0 -4 -4 7 -9 11 -4 29
-6 41 -3 21 4 21 2 15 -48 -1 -4 -9 -6 -18 -5 -21 1 -19 -32 2 -49 8 -5 15
-21 17 -35 2 -17 10 -26 24 -28 15 -2 24 -12 27 -32 7 -32 37 -47 64 -30 13 8
26 9 45 1 21 -8 25 -15 21 -32 -5 -19 -3 -21 12 -15 11 4 22 2 26 -6 9 -15 78
-16 87 -1 4 5 16 15 28 21 19 10 21 9 18 -13 -1 -13 1 -24 4 -23 27 5 92 -17
97 -32 7 -22 32 -33 41 -19 3 5 0 17 -7 25 -15 18 -8 27 15 18 10 -4 16 -17
16 -35 0 -16 2 -29 4 -29 2 0 12 -3 20 -6 12 -5 15 -2 10 12 -5 18 -5 18 9 2
8 -10 21 -18 29 -18 9 0 21 -7 28 -15 7 -8 20 -15 29 -15 9 0 28 -13 43 -29
15 -16 33 -29 40 -28 53 2 58 -2 58 -44 0 -34 3 -40 18 -37 11 2 25 -2 33 -8
8 -7 22 -13 33 -15 10 -2 26 -15 35 -28 l16 -25 -28 19 c-21 13 -31 15 -40 6
-7 -7 -7 -11 0 -11 5 0 43 -27 84 -60 40 -33 81 -60 90 -60 11 0 16 -9 16 -29
0 -36 38 -91 64 -91 13 0 19 -7 20 -22 1 -17 2 -19 6 -5 5 20 19 22 29 5 5 -7
3 -8 -6 -3 -9 5 -10 2 -6 -12 5 -15 1 -19 -24 -21 -30 -2 -75 22 -198 105 -78
53 -92 56 -26 6 27 -21 54 -41 59 -45 74 -60 104 -78 126 -78 36 0 41 -20 44
-168 2 -68 5 -126 9 -129 3 -3 -2 -11 -11 -18 -20 -15 -9 -35 18 -35 18 0 20
-4 14 -32 -4 -18 -11 -39 -16 -48 -4 -8 -10 -22 -13 -30 -14 -38 -55 -95 -67
-92 -10 3 -10 0 0 -12 14 -17 7 -36 -15 -36 -8 0 -14 -4 -14 -9 0 -5 -16 -32
-35 -61 -19 -29 -35 -56 -35 -61 0 -12 -60 -99 -92 -134 -15 -16 -28 -36 -28
-42 0 -7 -6 -13 -12 -13 -7 0 -35 -20 -61 -43 -51 -46 -54 -65 -14 -85 20 -10
19 -11 -8 -7 -43 6 -62 -8 -30 -23 28 -13 32 -27 10 -36 -8 -3 -15 -12 -15
-21 0 -8 -4 -15 -10 -15 -5 0 -9 10 -7 22 1 14 -4 23 -15 26 -13 3 -16 -1 -11
-14 4 -11 0 -22 -12 -30 -15 -11 -18 -26 -17 -75 1 -33 9 -81 17 -105 8 -25
15 -53 15 -62 0 -10 4 -22 9 -28 6 -5 13 -50 17 -99 7 -99 -4 -193 -39 -314
l-21 -74 27 -21 c35 -28 34 -37 -2 -30 -35 7 -42 -2 -58 -76 -6 -30 -19 -73
-29 -95 -10 -22 -18 -46 -18 -53 -1 -7 -6 -16 -12 -20 -6 -4 -14 -14 -18 -22
-20 -43 -69 -113 -111 -158 -39 -44 -185 -111 -241 -112 -11 0 -25 -5 -31 -11
-8 -8 -68 -11 -186 -10 -150 2 -175 0 -180 -14 -5 -12 -16 -14 -49 -9 -45 6
-120 29 -151 46 -11 5 -21 7 -24 4 -3 -2 -42 11 -86 31 -45 19 -104 43 -131
54 -27 10 -54 23 -60 29 -5 5 -20 10 -32 10 -12 0 -27 6 -33 13 -6 8 -26 14
-44 15 -19 1 -46 6 -61 12 -15 5 -39 7 -54 4 -28 -7 -138 -69 -160 -91 -7 -7
-25 -16 -40 -20 -15 -3 -29 -9 -32 -13 -9 -12 -104 -41 -185 -56 -110 -19
-407 -19 -516 1 -46 9 -112 29 -147 45 -35 17 -64 30 -66 30 -6 0 -106 98
-106 103 0 3 -16 32 -34 65 -19 32 -45 83 -56 113 -12 30 -35 65 -52 80 -27
22 -29 27 -16 39 12 11 12 20 3 46 -6 18 -19 42 -29 53 -12 13 -14 21 -6 26
14 9 11 28 -24 155 -16 58 -34 102 -46 112 -25 20 -25 24 0 31 14 3 20 14 20
31 0 14 -4 26 -10 26 -16 0 -12 30 5 36 24 10 17 46 -12 71 l-28 22 33 1 c40
0 52 23 27 50 -19 21 -17 30 10 34 23 3 35 27 25 47 -6 11 -5 27 4 45 14 29
11 104 -4 104 -4 0 -10 10 -14 23 -3 13 -25 33 -53 49 -78 45 -89 56 -77 76 9
13 4 21 -27 44 -22 16 -42 28 -45 28 -3 0 -18 8 -32 19 -15 10 -36 21 -47 24
-16 4 -14 5 7 6 15 0 30 6 34 12 6 11 -45 64 -94 96 -25 17 -31 46 -7 37 26
-10 17 25 -12 51 -24 21 -26 26 -16 44 11 18 8 25 -28 59 -32 31 -37 41 -25
45 17 7 22 42 7 52 -21 12 -41 68 -30 81 8 9 8 23 0 46 -5 18 -15 71 -22 118
-7 50 -17 88 -25 93 -19 11 -17 25 4 32 14 4 22 23 31 75 7 38 10 74 7 79 -4
5 2 12 12 15 10 4 39 35 65 70 46 63 133 138 324 282 50 38 105 77 122 86 22
12 31 24 31 43 0 24 3 25 33 20 18 -4 46 -1 62 5 l30 12 -30 23 c-16 13 -26
27 -22 31 3 4 12 2 19 -4 7 -6 48 -13 92 -16 43 -4 82 -9 87 -12 16 -9 165 33
205 59 82 53 136 138 112 177 -15 23 -5 36 35 45 17 5 27 3 27 -4 0 -6 8 -11
19 -11 19 0 84 49 476 355 61 48 151 118 202 157 l92 70 33 -23 c18 -13 35
-26 38 -29 9 -11 70 -51 70 -46 0 2 -27 30 -60 62 -59 56 -70 79 -37 79 9 0
22 6 29 13 15 15 25 15 33 2z m1690 -1230 c3 -5 1 -10 -4 -10 -6 0 -11 5 -11
10 0 6 2 10 4 10 3 0 8 -4 11 -10z m-1100 -2840 c3 -5 2 -10 -4 -10 -5 0 -13
5 -16 10 -3 6 -2 10 4 10 5 0 13 -4 16 -10z"/>
<path d="M2265 4193 c-352 -269 -556 -427 -560 -433 -2 -4 5 -31 16 -61 79
-207 -63 -413 -286 -413 -77 0 -128 18 -176 61 l-39 35 -223 -168 c-122 -93
-275 -209 -340 -258 -64 -49 -117 -92 -117 -96 0 -3 26 -14 57 -24 103 -31
585 -187 688 -221 55 -19 163 -54 240 -79 77 -24 240 -76 362 -115 l222 -71
135 0 c113 0 136 2 136 15 0 12 -23 15 -121 17 l-121 3 0 140 1 140 121 3 c67
1 120 7 120 12 0 6 -96 11 -237 12 l-238 3 -3 63 -3 62 220 0 220 0 3 28 c2
15 9 27 17 27 8 0 16 6 19 13 3 9 -57 12 -278 12 l-281 0 3 65 3 66 242 0
c188 0 243 3 252 13 6 7 20 39 31 70 22 65 20 68 -52 63 -30 -2 -48 2 -48 8 0
6 16 58 35 115 19 57 35 110 35 117 0 10 -46 13 -220 13 l-220 0 0 65 0 65
250 0 250 0 0 355 c0 195 -3 355 -7 355 -5 -1 -53 -35 -108 -77z"/>
<path d="M2409 4266 c-2 -2 -3 -162 -1 -355 l3 -351 254 0 255 0 0 -65 0 -65
-216 -2 -217 -3 -13 -45 c-8 -25 -14 -48 -14 -52 0 -5 25 -8 55 -8 30 0 55 -3
55 -7 0 -5 -18 -69 -40 -143 -22 -74 -40 -136 -40 -137 0 -2 113 -3 250 -3
l250 0 0 -65 0 -65 -291 0 c-228 0 -290 -3 -287 -12 3 -7 17 -14 31 -16 21 -3
27 -9 27 -27 l0 -25 203 -2 202 -3 0 -60 0 -60 -232 -3 c-144 -1 -233 -6 -233
-12 0 -6 48 -10 120 -10 l120 0 0 -145 0 -145 -120 0 c-100 0 -120 -2 -120
-15 0 -13 23 -15 147 -15 l146 0 236 76 c130 41 373 120 541 174 168 54 412
133 544 175 196 63 236 79 225 90 -13 12 -366 281 -569 433 -47 35 -91 66 -98
69 -7 3 -25 -6 -40 -20 -45 -41 -93 -60 -168 -65 -131 -8 -234 50 -291 166
-23 48 -28 69 -27 132 1 52 8 89 22 121 l20 47 -21 20 c-12 11 -161 124 -332
252 -170 128 -315 237 -321 241 -6 5 -13 7 -15 5z"/>
<path d="M2580 4210 c0 -5 5 -10 11 -10 5 0 7 5 4 10 -3 6 -8 10 -11 10 -2 0
-4 -4 -4 -10z"/>
<path d="M3008 3883 c98 -81 128 -103 146 -103 24 0 20 4 -59 54 -124 80 -124
80 -87 49z"/>
<path d="M1698 3580 c-3 -8 -13 -36 -23 -62 -20 -58 -82 -123 -143 -151 -59
-26 -144 -28 -190 -3 -49 25 -51 12 -3 -19 78 -52 178 -43 267 24 62 47 107
130 102 187 -2 22 -6 32 -10 24z"/>
<path d="M1917 3523 c-4 -3 -7 -19 -7 -35 l0 -28 230 0 c127 0 230 -2 230 -4
0 -2 -16 -52 -35 -112 -19 -59 -35 -114 -35 -121 0 -9 16 -13 55 -13 38 0 55
-4 54 -12 0 -7 -15 -53 -32 -103 l-32 -90 -245 -5 -245 -5 0 -30 0 -30 550 0
550 0 0 30 0 30 -257 3 c-142 1 -258 6 -258 10 0 4 20 67 44 139 24 72 42 134
38 137 -3 3 -32 6 -64 6 -32 0 -58 2 -58 4 0 2 14 41 31 85 l31 81 216 2 217
3 0 30 0 30 -486 3 c-267 1 -489 -1 -492 -5z"/>
<path d="M1180 3463 c-14 -9 -27 -19 -30 -23 -26 -29 -560 -432 -664 -501 -73
-48 -78 -61 -46 -119 21 -38 26 -36 10 4 -9 25 0 33 268 234 152 115 328 248
390 295 63 47 119 88 125 90 14 4 1 37 -15 37 -8 0 -25 -8 -38 -17z"/>
<path d="M3534 3442 c-9 -16 -38 -44 -66 -62 -60 -41 -141 -52 -202 -26 -44
18 -46 19 -46 8 0 -5 19 -19 43 -32 84 -48 189 -25 283 62 l45 41 29 -21 c17
-12 45 -32 62 -44 18 -13 39 -29 46 -35 7 -7 16 -13 20 -13 4 0 -6 12 -23 26
-16 14 -56 48 -87 75 -31 27 -63 49 -72 49 -8 0 -22 -13 -32 -28z"/>
<path d="M4015 3310 c3 -5 8 -10 11 -10 2 0 4 5 4 10 0 6 -5 10 -11 10 -5 0
-7 -4 -4 -10z"/>
<path d="M2360 2820 l0 -30 -210 0 -210 0 0 -35 0 -35 453 2 452 3 3 33 3 32
-205 0 -206 0 0 30 c0 28 -2 30 -40 30 -38 0 -40 -2 -40 -30z"/>
<path d="M537 2778 c30 -104 162 -545 194 -644 l32 -102 81 -4 c99 -6 145 -27
209 -98 135 -150 106 -379 -59 -476 -24 -14 -44 -32 -44 -40 0 -8 26 -94 58
-192 32 -97 91 -284 132 -414 41 -131 78 -237 82 -235 4 1 85 117 181 257 96
140 262 383 370 540 l195 285 -74 3 -74 3 0 69 0 70 123 0 124 0 37 54 37 54
-1 123 c-1 68 -1 129 -1 136 1 9 31 13 99 15 153 5 111 23 -53 23 l-140 0 -3
-163 -2 -163 -68 3 -67 3 0 230 0 230 50 6 c28 3 43 8 35 11 -8 4 -136 46
-285 93 -148 48 -371 120 -495 160 -527 172 -660 215 -674 215 -12 0 -12 -8 1
-52z"/>
<path d="M4170 2800 c-127 -42 -852 -278 -1110 -360 -225 -72 -268 -90 -217
-90 l27 0 0 -235 0 -236 -67 3 -68 3 -3 163 -2 162 -140 0 c-77 0 -140 -4
-140 -9 0 -16 30 -21 116 -21 l84 0 0 -132 0 -132 38 -57 37 -58 128 -1 127 0
0 -70 0 -69 -76 -3 -75 -3 211 -305 c117 -168 284 -410 372 -537 88 -128 164
-233 168 -233 3 0 20 44 37 97 17 54 77 241 132 416 56 175 101 320 101 322 0
2 -20 13 -45 25 -60 29 -108 90 -135 170 -73 215 84 450 301 450 l67 0 55 173
c63 196 177 574 177 588 0 12 -2 12 -100 -21z"/>
<path d="M2175 2632 c-3 -3 -5 -54 -5 -114 l0 -108 223 2 222 3 3 108 c1 59
-1 108 -5 108 -24 5 -433 5 -438 1z m385 -112 l0 -50 -160 0 -160 0 0 50 0 50
160 0 160 0 0 -50z"/>
<path d="M2262 2524 c2 -8 6 -15 11 -15 4 1 30 1 57 1 38 0 50 4 50 15 0 12
-13 15 -61 15 -49 0 -60 -3 -57 -16z"/>
<path d="M2410 2525 c0 -15 9 -18 65 -17 50 0 55 1 55 17 0 12 -13 15 -60 15
-47 0 -60 -3 -60 -15z"/>
<path d="M4357 2514 c-8 -8 1 -24 14 -24 5 0 9 7 9 15 0 15 -12 20 -23 9z"/>
<path d="M4345 2460 c3 -5 8 -10 11 -10 2 0 4 5 4 10 0 6 -5 10 -11 10 -5 0
-7 -4 -4 -10z"/>
<path d="M4323 2406 c3 -7 0 -19 -6 -25 -6 -6 -8 -14 -4 -18 9 -9 23 6 32 35
5 17 2 22 -10 22 -11 0 -15 -5 -12 -14z"/>
<path d="M1940 2120 l0 -200 35 0 35 0 0 165 0 165 378 -2 377 -3 3 -162 2
-163 35 0 35 0 0 200 0 200 -450 0 -450 0 0 -200z"/>
<path d="M2377 2204 c-14 -14 -6 -24 19 -24 16 0 24 5 22 13 -5 14 -31 21 -41
11z"/>
<path d="M2170 2145 c-1 -3 -1 -49 -1 -102 l-1 -98 221 -3 c122 -1 221 1 221
5 0 5 2 51 3 103 l2 95 -222 3 c-123 1 -223 0 -223 -3z m380 -105 l0 -50 -155
0 -155 0 0 50 0 50 155 0 155 0 0 -50z"/>
<path d="M2266 2045 c-5 -13 14 -15 129 -15 115 0 134 2 129 15 -5 12 -29 15
-129 15 -100 0 -124 -3 -129 -15z"/>
<path d="M2144 1868 c-16 -24 -33 -48 -37 -55 -6 -10 16 -13 103 -13 110 0
111 0 108 23 -3 21 0 22 72 22 68 0 75 -2 75 -20 0 -19 8 -20 113 -23 61 -1
112 1 112 5 0 4 -16 29 -35 56 l-35 47 -224 0 -223 0 -29 -42z"/>
<path d="M2360 1785 l0 -25 -261 0 -260 0 3 -27 3 -28 258 -3 258 -2 -3 -48
-3 -47 -133 -3 -132 -3 2 -172 3 -172 233 -3 232 -2 0 -50 0 -50 -198 0 c-162
0 -202 3 -220 15 -19 14 -24 14 -46 0 -19 -12 -48 -16 -128 -15 -56 1 -109 1
-115 1 -8 -1 -13 -14 -13 -31 l0 -30 138 0 137 0 49 -60 c28 -33 53 -60 56
-60 11 0 40 35 40 48 0 6 -12 24 -26 41 l-26 31 176 0 176 0 0 -50 c0 -27 -3
-50 -7 -50 -5 0 -42 9 -83 19 -41 10 -78 16 -82 12 -3 -3 -8 -17 -10 -31 -3
-23 2 -26 77 -47 44 -12 101 -22 128 -22 l47 -1 0 85 0 85 159 0 159 0 4 30 4
30 -160 2 -161 3 -3 48 -3 47 35 0 36 0 0 175 0 174 -132 3 -133 3 -3 47 -3
48 258 2 258 3 3 28 3 27 -260 0 -261 0 0 25 c0 22 -4 25 -35 25 -31 0 -35 -3
-35 -25z m0 -285 l0 -50 -100 0 -100 0 0 50 0 50 100 0 100 0 0 -50z m270 0
l0 -50 -100 0 -100 0 0 50 0 50 100 0 100 0 0 -50z m-275 -150 l0 -45 -100 0
-100 0 -3 33 c-6 61 -3 63 105 60 l98 -3 0 -45z m275 0 l0 -50 -100 0 -100 0
0 50 0 50 100 0 100 0 0 -50z"/>
<path d="M2195 1512 c-15 -16 2 -22 60 -22 68 0 94 19 28 21 -21 0 -48 2 -61
3 -12 2 -24 0 -27 -2z"/>
<path d="M2464 1511 c-15 -15 5 -21 67 -21 47 0 69 4 67 11 -3 10 -124 19
-134 10z"/>
<path d="M2190 1350 c0 -6 28 -10 65 -10 37 0 65 4 65 10 0 6 -28 10 -65 10
-37 0 -65 -4 -65 -10z"/>
<path d="M2460 1350 c0 -6 30 -10 70 -10 40 0 70 4 70 10 0 6 -30 10 -70 10
-40 0 -70 -4 -70 -10z"/>
<path d="M1090 1701 c0 -27 -28 -91 -57 -129 -28 -38 -82 -74 -135 -91 -39
-13 -47 -31 -28 -61 8 -13 11 -13 22 1 7 9 35 27 62 40 60 29 128 104 144 157
15 48 16 102 2 102 -5 0 -10 -8 -10 -19z"/>
<path d="M1890 1498 c-61 -90 -166 -243 -233 -340 -67 -98 -144 -211 -172
-250 -27 -40 -93 -137 -147 -214 -54 -78 -98 -145 -98 -148 0 -3 189 -6 420
-6 l420 0 5 27 c22 107 46 149 112 197 191 141 458 52 508 -168 l12 -51 427
-3 c235 -1 426 1 424 6 -1 4 -68 101 -148 215 -80 114 -243 348 -363 520 -120
172 -227 327 -239 345 l-20 32 -164 0 c-203 0 -225 -18 -26 -22 l137 -3 0
-210 0 -210 -43 -3 c-23 -2 -40 -7 -37 -13 4 -5 75 -9 161 -9 l154 0 0 -65 0
-65 -160 0 -160 0 0 -85 0 -85 -47 0 c-27 0 -97 12 -157 27 l-108 28 5 40 c4
23 9 49 13 58 5 15 -1 17 -45 17 -51 0 -51 0 -36 -23 14 -22 13 -25 -26 -63
l-41 -39 -58 63 -57 62 -147 0 -146 0 0 65 0 65 149 0 c89 0 152 4 156 10 4 6
-7 10 -24 10 l-31 0 0 215 0 215 130 0 c80 0 130 4 130 10 0 6 -60 10 -159 10
l-160 0 -111 -162z"/>
<path d="M3805 1500 c-9 -15 64 -52 90 -46 29 7 34 26 8 26 -10 1 -35 7 -56
14 -20 8 -39 10 -42 6z"/>
<path d="M2143 1205 c5 -13 387 -19 387 -6 0 6 -76 11 -195 13 -127 2 -194 0
-192 -7z"/>
<path d="M2410 1051 c14 -5 47 -11 73 -15 39 -6 47 -5 47 8 0 13 -13 16 -72
15 -50 0 -65 -3 -48 -8z"/>
<path d="M2655 550 c-4 -19 -3 -36 4 -43 6 -6 11 -7 12 -1 0 5 2 19 3 31 4 38
-11 48 -19 13z"/>
<path d="M1140 545 c0 -5 5 -17 10 -25 5 -8 10 -10 10 -5 0 6 -5 17 -10 25 -5
8 -10 11 -10 5z"/>
</g>
</svg>
